<?xml version="1.0" encoding="UTF-8" standalone="no"?>
<!-- Created with Inkscape (http://www.inkscape.org/) -->

<svg
   width="100.26981mm"
   height="122.37399mm"
   viewBox="0 0 100.26981 122.37399"
   version="1.1"
   id="svg1"
   xmlns="http://www.w3.org/2000/svg"
   xmlns:svg="http://www.w3.org/2000/svg">
  <defs
     id="defs1" />
  <g
     id="layer1"
     transform="translate(-363.53748,-501.12044)">
    <rect
       style="fill:#ffffff;fill-opacity:1;stroke:#b80000;stroke-width:0.600001;stroke-miterlimit:5.3;stroke-opacity:1"
       id="rect176"
       width="99.669823"
       height="121.77402"
       x="363.83749"
       y="501.42044"
       ry="6.0284162" />
    <path
       style="fill:#b80000;fill-opacity:1;stroke:#b80000;stroke-width:0.600001;stroke-miterlimit:5.3;stroke-opacity:1"
       id="path179-0"
       d="m 451.91948,595.43498 a 5,5 0 0 1 -6.65883,2.35798 5,5 0 0 1 -2.37128,-6.65411 5,5 0 0 1 6.64936,-2.38457 5,5 0 0 1 2.39785,6.64457" />
    <text
       xml:space="preserve"
       style="font-style:normal;font-variant:normal;font-weight:bold;font-stretch:normal;font-size:22.4955px;font-family:Cambria;-inkscape-font-specification:'Cambria, Bold';font-variant-ligatures:normal;font-variant-caps:normal;font-variant-numeric:normal;font-variant-east-asian:normal;text-align:center;text-anchor:middle;fill:#b80000;fill-opacity:1;stroke:none;stroke-width:0.797088;stroke-miterlimit:5.3;stroke-opacity:1"
       x="411.33044"
       y="478.05316"
       id="text178"
       transform="matrix(0.91348635,-0.00493967,0.00591945,1.0946751,0,0)"><tspan
         id="tspan178"
         style="font-style:normal;font-variant:normal;font-weight:bold;font-stretch:normal;font-size:22.4955px;font-family:Cambria;-inkscape-font-specification:'Cambria, Bold';font-variant-ligatures:normal;font-variant-caps:normal;font-variant-numeric:normal;font-variant-east-asian:normal;fill:#b80000;fill-opacity:1;stroke:none;stroke-width:0.797087"
         x="411.33044"
         y="478.05316">1</tspan></text>
    <text
       xml:space="preserve"
       style="font-style:normal;font-variant:normal;font-weight:bold;font-stretch:normal;font-size:22.4955px;font-family:Cambria;-inkscape-font-specification:'Cambria, Bold';font-variant-ligatures:normal;font-variant-caps:normal;font-variant-numeric:normal;font-variant-east-asian:normal;text-align:center;text-anchor:middle;fill:#b80000;fill-opacity:1;stroke:none;stroke-width:0.797088;stroke-miterlimit:5.3;stroke-opacity:1"
       x="-497.31967"
       y="-545.13629"
       id="text179"
       transform="matrix(-0.91345382,-0.00915617,0.01097228,-1.0946361,0,0)"><tspan
         id="tspan179"
         style="font-style:normal;font-variant:normal;font-weight:bold;font-stretch:normal;font-size:22.4955px;font-family:Cambria;-inkscape-font-specification:'Cambria, Bold';font-variant-ligatures:normal;font-variant-caps:normal;font-variant-numeric:normal;font-variant-east-asian:normal;fill:#b80000;fill-opacity:1;stroke:none;stroke-width:0.797087"
         x="-497.31967"
         y="-545.13629">1</tspan></text>
    <path
       style="fill:#b80000;fill-opacity:1;stroke:#b80000;stroke-width:0.600001;stroke-miterlimit:5.3;stroke-opacity:1"
       id="path179"
       d="m 383.29628,530.84929 a 5,5 0 0 1 -6.65883,2.35797 5,5 0 0 1 -2.37128,-6.6541 5,5 0 0 1 6.64936,-2.38457 5,5 0 0 1 2.39785,6.64457" />
    <path
       style="fill:#b80000;fill-opacity:1;stroke:#b80000;stroke-width:0.569875;stroke-miterlimit:5.3;stroke-opacity:1"
       id="path1"
       d="m 443.30809,573.08392 a 32.26992,29.712585 0 0 1 -42.97599,14.0123 32.26992,29.712585 0 0 1 -15.30419,-39.54213 32.26992,29.712585 0 0 1 42.91482,-14.17036 32.26992,29.712585 0 0 1 15.47573,39.48549" />
  </g>
</svg>
